<?xml version="1.0" encoding="utf-8"?>
<svg xmlns="http://www.w3.org/2000/svg"
	xmlns:xlink="http://www.w3.org/1999/xlink"
	width="440px" height="367px" viewBox="0 0 440 367">
<path fillRule="evenodd" d="M 426.11 205.93C 422.75 208.76 418.66 210.17 413.83 210.17 409.26 210.17 405.24 208.69 401.75 205.73 398.26 202.76 396.24 199.13 395.71 194.82 391.14 154.67 388.73 123.68 388.46 101.85 388.46 101.85 388.46 35.97 388.46 35.97 388.46 29.23 390.88 23.64 395.71 19.2 400.54 14.75 406.45 12.53 413.42 12.53 420.14 12.53 425.97 14.88 430.94 19.6 435.91 24.31 438.39 29.77 438.39 35.97 438.39 35.97 438.39 101.45 438.39 101.45 438.12 128.66 435.97 159.79 431.95 194.82 431.41 199.4 429.46 203.1 426.11 205.93ZM 413.83 239.28C 421.08 239.28 427.25 241.77 432.35 246.75 437.45 251.74 440 258 440 265.55 440 272.82 437.45 279.02 432.35 284.14 427.25 289.26 421.08 291.82 413.83 291.82 406.31 291.82 400 289.33 394.9 284.34 389.8 279.36 387.25 273.09 387.25 265.55 387.25 258 389.8 251.74 394.9 246.75 400 241.77 406.31 239.28 413.83 239.28ZM 281.07 310.41C 275.7 326.04 267.65 339.38 256.91 350.43 246.17 361.48 233.96 367 220.27 367 212.75 367 206.85 365.11 202.55 361.34 198.26 357.57 196.11 352.18 196.11 345.17 196.11 333.59 202.02 325.77 213.83 321.73 222.69 318.77 229.8 310.14 235.17 295.86 235.17 295.86 240.81 280.5 240.81 280.5 240.81 280.5 184.83 117.21 184.83 117.21 184.03 114.79 183.63 112.36 183.63 109.94 183.63 103.47 186.04 98.08 190.87 93.77 195.71 89.46 202.15 87.3 210.2 87.3 221.75 87.3 228.99 92.96 231.95 104.28 231.95 104.28 260.13 203.3 260.13 203.3 260.13 203.3 265.77 225.94 265.77 225.94 265.77 225.94 266.58 225.94 266.58 225.94 266.58 225.94 272.21 203.3 272.21 203.3 272.21 203.3 300.4 104.28 300.4 104.28 303.35 92.96 311.14 87.3 323.76 87.3 330.47 87.3 336.31 89.39 341.27 93.57 346.24 97.74 348.72 102.93 348.72 109.13 348.72 111.28 348.32 113.98 347.51 117.21 347.51 117.21 281.07 310.41 281.07 310.41ZM 129.66 289.4C 122.68 289.4 116.91 287.24 112.35 282.93 107.78 278.62 105.5 273.23 105.5 266.76 105.5 266.76 105.5 159.65 105.5 159.65 105.5 150.49 102.82 143.21 97.45 137.82 92.08 132.44 85.23 129.74 76.91 129.74 68.59 129.74 61.74 132.5 56.37 138.03 51.01 143.55 48.32 150.76 48.32 159.65 48.32 159.65 48.32 266.76 48.32 266.76 48.32 272.96 46.04 278.28 41.48 282.73 36.91 287.17 31.14 289.4 24.16 289.4 17.18 289.4 11.41 287.24 6.85 282.93 2.28 278.62 0 273.23 0 266.76 0 266.76 0 22.63 0 22.63 0 16.16 2.28 10.77 6.85 6.46 11.41 2.15 17.18-0 24.16-0 31.14-0 36.91 2.22 41.48 6.67 46.04 11.11 48.32 16.43 48.32 22.63 48.32 22.63 48.32 93.77 48.32 93.77 48.32 97.27 50.07 99.02 53.56 99.02 54.36 99.02 57.05 97.68 61.61 94.98 71.54 88.51 81.47 85.28 91.41 85.28 108.59 85.28 123.28 92.29 135.5 106.3 147.71 120.31 153.82 137.69 153.82 158.44 153.82 158.44 153.82 266.76 153.82 266.76 153.82 272.96 151.54 278.28 146.98 282.73 142.41 287.17 136.64 289.4 129.66 289.4Z" fill="rgb(255,255,255)"/></svg>